# xmcd
#
# Track frame offsets: 
#        150
#        15975
#        30000
#        42300
#        63450
#        79125
#        93075
#        112500
#        129275
#        143780
#        160670
#        179550
#        192675
#
# Disc length: 2787 seconds
#
# Revision: 0
# Processed by: cddbd v1.5.2PL0 Copyright (c) Steve Scherf et al.
# Submitted via: ExactAudioCopyFreeDBPlugin 1.0
#
DISCID=960ae10d
DTITLE=Trash Mavericks - Bust Your Kicks
DYEAR=1997
DGENRE=Country
TTITLE0=Halfway To Nowhere
TTITLE1=Spent The Rent
TTITLE2=Dig Your Own Grave
TTITLE3=Midnight Walk
TTITLE4=Too Much Static
TTITLE5=Wrong Man
TTITLE6=Guilty
TTITLE7=Coyote Moon
TTITLE8=House Of Cards
TTITLE9=Blown Away
TTITLE10=Beautiful Misery
TTITLE11=Nightmare
TTITLE12=Rock And Roll Queen
EXTD=
EXTT0=
EXTT1=
EXTT2=
EXTT3=
EXTT4=
EXTT5=
EXTT6=
EXTT7=
EXTT8=
EXTT9=
EXTT10=
EXTT11=
EXTT12=
PLAYORDER=
